<svg width="22" height="30" viewBox="0 0 22 30" fill="none" xmlns="http://www.w3.org/2000/svg">
<mask id="path-1-inside-1" fill="white">
<path d="M17.1875 30C16.7382 30 16.375 29.7206 16.375 29.375V0.625C16.375 0.279375 16.7382 0 17.1875 0C17.6368 0 18 0.279375 18 0.625V29.375C18 29.7206 17.6368 30 17.1875 30Z"/>
</mask>
<path d="M17.1875 28C17.3646 28 17.5996 28.0529 17.8322 28.2319C18.0676 28.413 18.375 28.8004 18.375 29.375H14.375C14.375 31.2813 16.1531 32 17.1875 32V28ZM18.375 29.375V0.625H14.375V29.375H18.375ZM18.375 0.625C18.375 1.19964 18.0676 1.58705 17.8322 1.76814C17.5996 1.94708 17.3646 2 17.1875 2V-2C16.1531 -2 14.375 -1.28129 14.375 0.625H18.375ZM17.1875 2C17.0104 2 16.7754 1.94708 16.5428 1.76814C16.3074 1.58705 16 1.19964 16 0.625H20C20 -1.28129 18.2219 -2 17.1875 -2V2ZM16 0.625V29.375H20V0.625H16ZM16 29.375C16 28.8004 16.3074 28.413 16.5428 28.2319C16.7754 28.0529 17.0104 28 17.1875 28V32C18.2219 32 20 31.2813 20 29.375H16Z" fill="white" mask="url(#path-1-inside-1)"/>
<path d="M18.2219 2.15186C18.5659 2.75477 18.8948 3.54925 19.1983 4.50526C19.0668 4.25932 18.9342 4.03815 18.802 3.84116C18.5817 3.51303 18.3494 3.23298 18.1074 3.01542C17.9809 2.90164 17.8314 2.78662 17.661 2.69333C17.6158 2.5255 17.5697 2.29743 17.5271 2.03278C17.4776 1.72547 17.4383 1.4042 17.4111 1.13642C17.6166 1.28286 17.8939 1.57697 18.2219 2.15186Z" stroke="white" stroke-width="2"/>
<mask id="path-4-inside-2" fill="white">
<path d="M5 11.25C2.24357 11.25 0 9.28687 0 6.875V0.625C0 0.279375 0.319286 0 0.714286 0C1.10929 0 1.5967 0.279375 1.5967 0.625V6.875C1.5967 8.59813 3.03071 9.5 5 9.5C6.96929 9.5 8.5 8.5 8.5 7V0.625C8.5 0.279375 8.89071 0 9.28571 0C9.68071 0 10 0.279375 10 0.625V6.875C10 9.28687 7.75643 11.25 5 11.25Z"/>
</mask>
<path d="M5 9.25C3.08893 9.25 2 7.9398 2 6.875H-2C-2 10.634 1.39821 13.25 5 13.25V9.25ZM2 6.875V0.625H-2V6.875H2ZM2 0.625C2 1.62645 1.16464 2 0.714286 2V-2C-0.526072 -2 -2 -1.0677 -2 0.625H2ZM0.714286 2C0.490706 2 0.332099 1.93805 0.201687 1.85195C0.12615 1.80208 -0.403301 1.42888 -0.403301 0.625H3.5967C3.5967 -0.524503 2.82354 -1.2102 2.40555 -1.48617C1.93268 -1.79836 1.33287 -2 0.714286 -2V2ZM-0.403301 0.625V6.875H3.5967V0.625H-0.403301ZM-0.403301 6.875C-0.403301 8.36834 0.25474 9.62815 1.3816 10.4497C2.43374 11.2169 3.74397 11.5 5 11.5V7.5C4.28674 7.5 3.89533 7.33221 3.73814 7.2176C3.67052 7.1683 3.64747 7.13164 3.63649 7.10992C3.62554 7.08825 3.5967 7.0222 3.5967 6.875H-0.403301ZM5 11.5C6.29875 11.5 7.59677 11.1736 8.63069 10.4543C9.69945 9.71069 10.5 8.51505 10.5 7H6.5C6.5 7.02247 6.4974 7.02446 6.49398 7.03044C6.48644 7.04362 6.45125 7.09771 6.34627 7.17075C6.12252 7.32642 5.67054 7.5 5 7.5V11.5ZM10.5 7V0.625H6.5V7H10.5ZM10.5 0.625C10.5 1.24609 10.1537 1.62243 9.96367 1.76851C9.76677 1.91988 9.53608 2 9.28571 2V-2C8.64035 -2 8.0168 -1.78019 7.52579 -1.40273C7.04167 -1.03056 6.5 -0.341716 6.5 0.625H10.5ZM9.28571 2C8.83536 2 8 1.62645 8 0.625H12C12 -1.0677 10.5261 -2 9.28571 -2V2ZM8 0.625V6.875H12V0.625H8ZM8 6.875C8 7.9398 6.91107 9.25 5 9.25V13.25C8.60179 13.25 12 10.634 12 6.875H8Z" fill="white" mask="url(#path-4-inside-2)"/>
<mask id="path-6-inside-3" fill="white">
<path d="M5 30C4.447 30 4 29.7206 4 29.375V0.625C4 0.279375 4.447 0 5 0C5.553 0 6 0.279375 6 0.625V29.375C6 29.7206 5.553 30 5 30Z"/>
</mask>
<path d="M5 24C5.66507 24 6.55582 24.1561 7.47262 24.7291C8.30837 25.2515 10 26.7375 10 29.375H-2C-2 32.3581 -0.0848722 34.1567 1.11263 34.9051C2.39118 35.7042 3.78193 36 5 36V24ZM10 29.375V0.625H-2V29.375H10ZM10 0.625C10 3.2625 8.30837 4.74853 7.47262 5.27088C6.55582 5.84388 5.66507 6 5 6V-6C3.78193 -6 2.39118 -5.70419 1.11263 -4.9051C-0.0848722 -4.15666 -2 -2.35813 -2 0.625H10ZM5 6C4.33493 6 3.44418 5.84388 2.52738 5.27088C1.69163 4.74853 0 3.2625 0 0.625H12C12 -2.35813 10.0849 -4.15666 8.88737 -4.9051C7.60882 -5.70419 6.21807 -6 5 -6V6ZM0 0.625V29.375H12V0.625H0ZM0 29.375C0 26.7375 1.69163 25.2515 2.52738 24.7291C3.44418 24.1561 4.33493 24 5 24V36C6.21807 36 7.60882 35.7042 8.88737 34.9051C10.0849 34.1567 12 32.3581 12 29.375H0Z" fill="white" mask="url(#path-6-inside-3)"/>
</svg>
