<svg xmlns="http://www.w3.org/2000/svg" width="29" height="31" fill="none">
  <g fill="#fff" clip-path="url(#clip0)">
    <path d="M20.7762 18.4731c-1.706 0-3.0885 1.4784-3.0885 3.3011 0 1.8241 1.3829 3.3019 3.0885 3.3019 1.7055 0 3.088-1.4783 3.088-3.3019 0-1.8232-1.3829-3.3011-3.088-3.3011zm0 5.0133c-.8841 0-1.6009-.7663-1.6009-1.7113 0-.946.7168-1.7118 1.6009-1.7118.884 0 1.6013.7658 1.6013 1.7118 0 .945-.7173 1.7113-1.6013 1.7113zM11.6068-.0101318c-1.76041 0-3.18731 1.5248118-3.18731 3.4070918s1.42644 3.40661 3.18731 3.40661c1.7608 0 3.1873-1.52384 3.1873-3.40661-.0005-1.88276-1.4269-3.4070918-3.1873-3.4070918zM11.6063 5.46573c-1.0689 0-1.93527-.92613-1.93527-2.06925 0-1.14264.86637-2.06925 1.93527-2.06925 1.0694 0 1.9358.92661 1.9358 2.06925 0 1.14312-.8664 2.06925-1.9358 2.06925zM8.22692 17.6105c-1.29368 0-2.3413 1.1198-2.3413 2.5027 0 1.3824 1.04762 2.5028 2.3413 2.5028 1.29367 0 2.34128-1.1204 2.34128-2.5028s-1.04761-2.5027-2.34128-2.5027zM8 19.5c-.45902 0 1.15818 1.1039 1.15818.6132 0-.4897-1.6172.3868-1.15818.3868.45856 0 1.05704-.8774 1.05704-.3877 0 .4906-.59848-.6123-1.05704-.6123zM18.5002 9.76265s3.04-.83845 6.1779 1.49385c.9072.7599 1.7654 1.3364 1.1523 2.1225-.3435.3405-.6371.6568-1.716-.5241-1.0539-.76-2.7196-1.8983-5.6142-1.4415-1.1278.2364-1.9616.5507-3.5557 2.1492-1.5936 1.5984-3.9721 2.7251-6.49732 2.4892-2.52527-.2354-3.84885-1.2579-5.24628-2.542-.29408-.4195-.29408-.8651-.1228-1.1272.17128-.262.8333-.5241 1.20123-.1312.36794.3933 2.10839 1.9656 3.82438 2.0702 1.71644.1046 3.43289.2097 5.73699-1.9656 2.306-2.1739 3.4583-2.3313 4.6595-2.59335z"/>
    <mask id="a">
      <path d="M28.6456 26.8156V8.15743c0-.57834-.3738-.65003-.5238-.65535h-.5057c-.4934 0-.5365.55654-.5378.73867V8.30129c.0013 3.60861.0091 18.25321-.0018 18.53991-.0123.328-.0734 1.1664-.8211 1.8872-.8084.695-1.6176.603-1.6176.603s-20.17725 0-20.65529-.0266c-.37972-.0654-1.04174-.2098-1.60588-1.009-.56369-.7992-.45312-1.8474-.45312-1.8474V8.31486c0-.83846-.67425-.8123-.67425-.8123H.942038c-.536047 0-.585437.58803-.588156.77645V26.816c0 1.3369.453578 2.3977 1.547878 3.3369 1.09384.9387 2.37482.8564 2.37482.8564s19.72362 0 20.58182-.0024c.8582-.0025 1.9856-.4166 2.9159-1.5554.9293-1.1387.8713-2.6359.8713-2.6359z"/>
    </mask>
    <path d="M28.6456 26.8156V8.15743c0-.57834-.3738-.65003-.5238-.65535h-.5057c-.4934 0-.5365.55654-.5378.73867V8.30129c.0013 3.60861.0091 18.25321-.0018 18.53991-.0123.328-.0734 1.1664-.8211 1.8872-.8084.695-1.6176.603-1.6176.603s-20.17725 0-20.65529-.0266c-.37972-.0654-1.04174-.2098-1.60588-1.009-.56369-.7992-.45312-1.8474-.45312-1.8474V8.31486c0-.83846-.67425-.8123-.67425-.8123H.942038c-.536047 0-.585437.58803-.588156.77645V26.816c0 1.3369.453578 2.3977 1.547878 3.3369 1.09384.9387 2.37482.8564 2.37482.8564s19.72362 0 20.58182-.0024c.8582-.0025 1.9856-.4166 2.9159-1.5554.9293-1.1387.8713-2.6359.8713-2.6359z"/>
  </g>
  <defs>
    <clipPath id="clip0">
      <path fill="#fff" d="M0 0h29v31H0z"/>
    </clipPath>
  </defs>
</svg>
